<?xml version="1.0" encoding="UTF-8" standalone="no"?>
<svg
   xmlns:dc="http://purl.org/dc/elements/1.1/"
   xmlns:cc="http://creativecommons.org/ns#"
   xmlns:rdf="http://www.w3.org/1999/02/22-rdf-syntax-ns#"
   xmlns:svg="http://www.w3.org/2000/svg"
   xmlns="http://www.w3.org/2000/svg"
   viewBox="0 0 486.66666 94.813332"
   height="19.48219"
   width="100"
   xml:space="preserve"
   id="svg2"
   version="1.1"><metadata
     id="metadata8"><rdf:RDF><cc:Work
         rdf:about=""><dc:format>image/svg+xml</dc:format><dc:type
           rdf:resource="http://purl.org/dc/dcmitype/StillImage" /></cc:Work></rdf:RDF></metadata><defs
     id="defs6" /><g
     transform="matrix(1.3333333,0,0,-1.3333333,0,94.813333)"
     id="g10"><g
       transform="scale(0.1)"
       id="g12"><path
         id="path14"
         style="fill:#100f0d;fill-opacity:1;fill-rule:nonzero;stroke:none"
         d="m 652.5,524.223 c 15.547,6.297 31.461,9.449 47.734,9.449 24.223,0 43.024,-3.356 56.411,-10.063 13.371,-6.707 23.132,-17.375 29.285,-32.011 6.511,-14.629 10.386,-33.528 11.664,-56.696 1.258,-23.168 1.898,-51.621 1.898,-85.359 V 7.50781 H 995.293 V 453.195 c 0,83.317 -17.066,147.129 -51.184,191.438 -34.121,44.301 -84.043,66.457 -149.757,66.457 -35.391,0 -71.489,-10.574 -108.325,-31.699 -36.828,-21.145 -74.738,-50.211 -113.73,-87.188 -17.34,39.016 -41.352,68.59 -72.047,88.707 -30.695,20.121 -66.086,30.18 -106.176,30.18 -37.207,0 -71.148,-8.332 -101.84,-24.996 -30.695,-16.676 -62.839,-39.844 -96.425,-69.508 v 75.602 H 0 V 7.50781 H 195.809 V 492.82 c 14.457,9.754 30.726,18.993 48.808,27.743 18.078,8.734 36.699,13.109 55.871,13.109 23.864,0 42.391,-3.356 55.598,-10.063 13.191,-6.707 23.047,-17.375 29.559,-32.011 6.507,-14.629 10.48,-33.633 11.929,-57 1.446,-23.379 2.168,-51.731 2.168,-85.055 V 7.50781 H 595.551 V 492.82 c 22.414,14.633 41.402,25.094 56.949,31.403" /><path
         id="path16"
         style="fill:#f2551a;fill-opacity:1;fill-rule:nonzero;stroke:none"
         d="m 1442.99,127.461 c -17.74,-7.008 -35.23,-10.508 -52.49,-10.508 -21.73,0 -37.71,1.512 -47.93,4.543 -10.23,3.02 -19.02,7.715 -26.36,14.09 -7.67,6.363 -12.46,13.051 -14.38,20.059 -1.92,7.011 -2.88,16.093 -2.88,27.238 0,16.883 4.56,30.508 13.66,40.851 9.11,10.352 22.29,18.239 39.55,23.653 14.05,4.468 34.66,8.363 61.83,11.707 27.15,3.344 52.4,5.969 75.73,7.886 v -111.8 c -13.42,-11.481 -29,-20.707 -46.73,-27.719 z m 46.73,-113.0821 h 171.12 V 380.578 c 0,64.539 -21.81,111.922 -65.43,142.117 -43.62,30.196 -114.48,45.293 -212.58,45.293 -41.22,0 -82.37,-3.281 -123.42,-9.824 -41.07,-6.555 -70.7,-12.223 -88.91,-17.016 V 411.254 h 15.81 c 14.06,5.43 37.22,13.18 69.5,23.246 32.27,10.066 62.63,15.098 91.07,15.098 47.29,0 83.08,-5.68 107.37,-17.016 24.28,-11.348 36.43,-31.871 36.43,-61.59 v -2.879 c -50.81,-2.875 -99.87,-7.355 -147.15,-13.418 -47.3,-6.078 -86.92,-16.297 -118.87,-30.675 -32.28,-14.379 -57.21,-34.032 -74.77,-58.957 -17.58,-24.926 -26.37,-57.04 -26.37,-96.344 0,-49.211 17.26,-89.6331 51.77,-121.2659 C 1209.8,15.8164 1252.62,0 1303.75,0 c 21.72,0 41.7,1.84766 59.91,5.51172 18.22,3.67969 35.78,9.34768 52.73,17.01558 12.13,5.754 25.08,13.5782 38.82,23.4883 13.73,9.8946 25.24,18.3672 34.51,25.4024 V 14.3789" /><path
         id="path18"
         style="fill:#100f0d;fill-opacity:1;fill-rule:nonzero;stroke:none"
         d="M 2182.82,552.652 2059.51,182.164 1934.59,552.652 h -182.2 l 206.1,-538.2731 h 195.56 L 2361.6,552.652 Z m 804.76,-240.617 c 0,83.078 -22.04,146.742 -66.14,191.008 -44.1,44.254 -109.93,66.387 -197.48,66.387 -94.9,0 -169.61,-25.969 -224.08,-77.891 -54.49,-51.934 -81.72,-122.309 -81.72,-211.141 0,-89.796 28.76,-158.976 86.27,-207.5425 C 2561.95,24.2773 2644.71,0 2752.72,0 c 41.86,0 80.05,3.52344 114.56,10.5469 34.51,7.0195 71.25,18.3672 110.24,34.0312 V 183.098 h -19.17 c -19.82,-15.028 -46.82,-29.082 -81.01,-42.18 -34.2,-13.109 -69.5,-19.652 -105.93,-19.652 -57.51,0 -101.06,11.179 -130.61,33.554 -29.56,22.36 -45.62,54.641 -48.17,96.821 h 394.95 z m -395.43,40.742 c 2.55,38.024 14.53,65.664 35.95,82.922 21.4,17.254 48.72,25.883 81.96,25.883 35.78,0 62.14,-9.105 79.09,-27.32 16.93,-18.215 25.88,-45.379 26.84,-81.485 z M 3650,364.762 c 0,67.414 -16.36,118.066 -49.07,151.941 -32.71,33.863 -78.1,50.809 -136.19,50.809 -34.46,0 -65.82,-6.399 -94.06,-19.172 -28.25,-12.789 -57.69,-31.156 -88.32,-55.121 v 59.433 H 3109.33 V 14.3789 h 173.03 V 395.918 c 18.85,11.18 36.35,19.324 52.49,24.441 16.13,5.106 32.03,7.672 47.69,7.672 22.05,0 39.22,-2.722 51.53,-8.148 12.29,-5.442 21.64,-14.07 28.04,-25.887 5.43,-10.23 9.26,-26.121 11.5,-47.691 2.23,-21.567 3.36,-43.219 3.36,-64.946 V 14.3789 H 3650 V 364.762" /></g></g></svg>